{"asset":{"version":"2.0","generator":"THREE.GLTFExporter"},"scenes":[{"name":"AuxScene","nodes":[8]}],"scene":0,"nodes":[{"name":"Cube005","mesh":0},{"name":"Cube005_1","mesh":1},{"name":"Cube005_2","mesh":2},{"name":"Cube005_3","mesh":3},{"name":"Cube005_4","mesh":4},{"name":"Cube005_5","mesh":5},{"name":"Cube005_6","mesh":6},{"name":"Cube003","extras":{"name":"Cube.003"},"children":[0,1,2,3,4,5,6]},{"name":"Scene","children":[7]}],"bufferViews":[{"buffer":0,"byteOffset":0,"byteLength":288,"target":34962,"byteStride":12},{"buffer":0,"byteOffset":288,"byteLength":288,"target":34962,"byteStride":12},{"buffer":0,"byteOffset":576,"byteLength":240,"target":34963},{"buffer":0,"byteOffset":816,"byteLength":52776,"target":34962,"byteStride":12},{"buffer":0,"byteOffset":53592,"byteLength":52776,"target":34962,"byteStride":12},{"buffer":0,"byteOffset":106368,"byteLength":53304,"target":34963},{"buffer":0,"byteOffset":159672,"byteLength":160284,"target":34962,"byteStride":12},{"buffer":0,"byteOffset":319956,"byteLength":160284,"target":34962,"byteStride":12},{"buffer":0,"byteOffset":480240,"byteLength":177204,"target":34963},{"buffer":0,"byteOffset":657444,"byteLength":2712,"target":34962,"byteStride":12},{"buffer":0,"byteOffset":660156,"byteLength":2712,"target":34962,"byteStride":12},{"buffer":0,"byteOffset":662868,"byteLength":2544,"target":34963},{"buffer":0,"byteOffset":665412,"byteLength":5760,"target":34962,"byteStride":12},{"buffer":0,"byteOffset":671172,"byteLength":5760,"target":34962,"byteStride":12},{"buffer":0,"byteOffset":676932,"byteLength":5688,"target":34963},{"buffer":0,"byteOffset":682620,"byteLength":3588,"target":34962,"byteStride":12},{"buffer":0,"byteOffset":686208,"byteLength":3588,"target":34962,"byteStride":12},{"buffer":0,"byteOffset":689796,"byteLength":3516,"target":34963},{"buffer":0,"byteOffset":693312,"byteLength":360,"target":34962,"byteStride":12},{"buffer":0,"byteOffset":693672,"byteLength":360,"target":34962,"byteStride":12},{"buffer":0,"byteOffset":694032,"byteLength":336,"target":34963}],"buffers":[{"byteLength":694368,"uri":"data:application/octet-stream;base64,"}],"accessors":[{"bufferView":0,"componentType":5126,"count":24,"max":[0.5103223919868469,-0.42188018560409546,-1.0059388875961304],"min":[-0.48209816217422485,-0.5411452054977417,-1.0073933601379395],"type":"VEC3"},{"bufferView":1,"componentType":5126,"count":24,"max":[0.007999483495950699,-0.007999483495950699,-0.9999359846115112],"min":[-0.007999483495950699,-0.007999483495950699,-0.9999359846115112],"type":"VEC3"},{"bufferView":2,"componentType":5125,"count":60,"max":[23],"min":[0],"type":"SCALAR"},{"bufferView":3,"componentType":5126,"count":4398,"max":[1.845661997795105,0.2533315420150757,1.948573350906372],"min":[-1.7885223627090454,-1.1032929420471191,-2.278230905532837],"type":"VEC3"},{"bufferView":4,"componentType":5126,"count":4398,"max":[1,1,1],"min":[-1,-1,-1],"type":"VEC3"},{"bufferView":5,"componentType":5125,"count":13326,"max":[4397],"min":[0],"type":"SCALAR"},{"bufferView":6,"componentType":5126,"count":13357,"max":[1.7798023223876953,0.25402605533599854,1.948573112487793],"min":[-1.7302007675170898,-1.0079518556594849,-2.204592227935791],"type":"VEC3"},{"bufferView":7,"componentType":5126,"count":13357,"max":[1,1,1],"min":[-1,-1,-1],"type":"VEC3"},{"bufferView":8,"componentType":5125,"count":44301,"max":[13356],"min":[0],"type":"SCALAR"},{"bufferView":9,"componentType":5126,"count":226,"max":[0.6590416431427002,-0.02095741033554077,0.49439144134521484],"min":[-0.6609150171279907,-0.7525206804275513,-1.2926133871078491],"type":"VEC3"},{"bufferView":10,"componentType":5126,"count":226,"max":[0.9911504983901978,1,0],"min":[-0.9911504983901978,-1,-1],"type":"VEC3"},{"bufferView":11,"componentType":5125,"count":636,"max":[225],"min":[0],"type":"SCALAR"},{"bufferView":12,"componentType":5126,"count":480,"max":[1.4866777658462524,-0.42214685678482056,1.5764776468276978],"min":[-1.4412816762924194,-0.8426744937896729,-0.9109288454055786],"type":"VEC3"},{"bufferView":13,"componentType":5126,"count":480,"max":[1,1,1],"min":[-1,-1,-0.11330079287290573],"type":"VEC3"},{"bufferView":14,"componentType":5125,"count":1422,"max":[479],"min":[0],"type":"SCALAR"},{"bufferView":15,"componentType":5126,"count":299,"max":[0.33261430263519287,-0.5015314817428589,2.468250274658203],"min":[-0.33057570457458496,-0.6168688535690308,1.8115400075912476],"type":"VEC3"},{"bufferView":16,"componentType":5126,"count":299,"max":[0.9987727999687195,0.9987727999687195,1],"min":[-0.9987727999687195,-0.9987727999687195,0.04244522377848625],"type":"VEC3"},{"bufferView":17,"componentType":5125,"count":879,"max":[298],"min":[0],"type":"SCALAR"},{"bufferView":18,"componentType":5126,"count":30,"max":[0.6586133241653442,-0.02647709846496582,0.3840222954750061],"min":[-0.6609150171279907,-0.2714310586452484,0.17645606398582458],"type":"VEC3"},{"bufferView":19,"componentType":5126,"count":30,"max":[0.41421791911125183,0.7946709990501404,0.6948171854019165],"min":[-0.41421791911125183,0.5879220962524414,0.6070404648780823],"type":"VEC3"},{"bufferView":20,"componentType":5125,"count":84,"max":[29],"min":[0],"type":"SCALAR"}],"materials":[{"pbrMetallicRoughness":{"baseColorFactor":[0.1607843137254902,0.20392156862745098,0.1843137254901961,1],"metallicFactor":0.3,"roughnessFactor":0.47058823704719543},"emissiveFactor":[0.2,0.4470588235294118,0.21176470588235294],"alphaMode":"BLEND","name":"Mat0"},{"pbrMetallicRoughness":{"baseColorFactor":[0.7058823529411765,0.32941176470588235,0.6901960784313725,1],"metallicFactor":0.4,"roughnessFactor":0.5},"alphaMode":"BLEND","name":"Mat1"},{"pbrMetallicRoughness":{"baseColorFactor":[0.5450980392156862,0.16470588235294117,0.16470588235294117,1],"metallicFactor":0.2,"roughnessFactor":0.5},"emissiveFactor":[0.1411764705882353,0.0196078431372549,0.0196078431372549],"alphaMode":"BLEND","name":"Mat2"},{"pbrMetallicRoughness":{"baseColorFactor":[0,0,0,1],"metallicFactor":0,"roughnessFactor":0.5},"alphaMode":"BLEND","name":"Window_Frame"},{"pbrMetallicRoughness":{"baseColorFactor":[0.8431372549019608,0.0784313725490196,0.0784313725490196,1],"metallicFactor":0,"roughnessFactor":0.5},"emissiveFactor":[0.03529411764705882,0.03137254901960784,0.03137254901960784],"alphaMode":"BLEND","name":"Mat4"},{"pbrMetallicRoughness":{"baseColorFactor":[0.1411764705882353,0.1411764705882353,0.1411764705882353,1],"metallicFactor":0.3,"roughnessFactor":0.4},"alphaMode":"BLEND","name":"Mat3"},{"pbrMetallicRoughness":{"baseColorFactor":[0.4823529411764706,0.8627450980392157,1,1],"metallicFactor":1,"roughnessFactor":0.3},"alphaMode":"BLEND","name":"Window"}],"meshes":[{"primitives":[{"mode":4,"attributes":{"POSITION":0,"NORMAL":1},"indices":2,"material":0}]},{"primitives":[{"mode":4,"attributes":{"POSITION":3,"NORMAL":4},"indices":5,"material":1}]},{"primitives":[{"mode":4,"attributes":{"POSITION":6,"NORMAL":7},"indices":8,"material":2}]},{"primitives":[{"mode":4,"attributes":{"POSITION":9,"NORMAL":10},"indices":11,"material":3}]},{"primitives":[{"mode":4,"attributes":{"POSITION":12,"NORMAL":13},"indices":14,"material":4}]},{"primitives":[{"mode":4,"attributes":{"POSITION":15,"NORMAL":16},"indices":17,"material":5}]},{"primitives":[{"mode":4,"attributes":{"POSITION":18,"NORMAL":19},"indices":20,"material":6}]}]}