{"asset":{"version":"2.0","generator":"THREE.GLTFExporter"},"scenes":[{"name":"AuxScene","nodes":[1]}],"scene":0,"nodes":[{"name":"Ruby","extras":{"name":"Ruby"},"mesh":0},{"name":"Scene","children":[0]}],"bufferViews":[{"buffer":0,"byteOffset":0,"byteLength":1740,"target":34962,"byteStride":12},{"buffer":0,"byteOffset":1740,"byteLength":1740,"target":34962,"byteStride":12},{"buffer":0,"byteOffset":3480,"byteLength":768,"target":34963}],"buffers":[{"byteLength":4248,"uri":"data:application/octet-stream;base64,"}],"accessors":[{"bufferView":0,"componentType":5126,"count":145,"max":[0.9238795042037964,0.39966022968292236,0.9238795042037964],"min":[-0.9238795042037964,-0.6699999570846558,-0.9238795042037964],"type":"VEC3"},{"bufferView":1,"componentType":5126,"count":145,"max":[0.9588967561721802,0.8448585271835327,0.9588967561721802],"min":[-0.9588967561721802,-1,-0.9588967561721802],"type":"VEC3"},{"bufferView":2,"componentType":5125,"count":192,"max":[144],"min":[0],"type":"SCALAR"}],"materials":[{"pbrMetallicRoughness":{"baseColorFactor":[0.5058823529411764,0.396078431372549,1,1],"metallicFactor":0.4,"roughnessFactor":0},"alphaMode":"BLEND","name":"Material"}],"meshes":[{"primitives":[{"mode":4,"attributes":{"POSITION":0,"NORMAL":1},"indices":2,"material":0}]}]}